<?xml version="1.0" standalone="no"?>
<!DOCTYPE svg PUBLIC "-//W3C//DTD SVG 20010904//EN"
 "http://www.w3.org/TR/2001/REC-SVG-20010904/DTD/svg10.dtd">
<svg version="1.0" xmlns="http://www.w3.org/2000/svg"
 width="500.000000pt" height="500.000000pt" viewBox="0 0 500.000000 500.000000"
 preserveAspectRatio="xMidYMid meet">

<g transform="translate(0.000000,500.000000) scale(0.100000,-0.100000)"
fill="#000000" stroke="none">
<path d="M4036 3993 c-3 -8 -6 -681 -6 -1496 0 -1413 -1 -1484 -19 -1522 -27
-60 -67 -103 -125 -133 l-51 -27 -1145 -3 c-894 -2 -1146 -5 -1152 -15 -14
-22 -8 -101 11 -142 10 -22 33 -55 51 -73 60 -61 78 -65 280 -73 225 -9 1151
-9 1765 0 435 6 451 7 490 28 51 27 91 67 119 118 l21 40 3 1550 c2 1057 0
1561 -7 1586 -13 42 -81 123 -121 144 -15 8 -46 19 -68 24 -33 7 -42 6 -46 -6z"/>
<path d="M1583 3758 c-25 -12 -53 -65 -53 -101 0 -47 22 -88 61 -113 l39 -24
494 0 c272 0 502 3 511 6 27 11 45 60 45 124 0 55 -3 65 -29 91 l-29 29 -509
-1 c-336 0 -515 -4 -530 -11z"/>
<path d="M1567 3254 c-33 -33 -43 -84 -28 -135 24 -79 -53 -74 1031 -77 695
-2 972 1 992 9 70 29 88 146 31 204 l-26 25 -987 0 -987 0 -26 -26z"/>
<path d="M1571 2774 c-37 -30 -48 -80 -32 -135 24 -80 -55 -74 1041 -74 911 0
978 1 1002 17 56 37 59 149 6 193 l-30 25 -978 0 -978 0 -31 -26z"/>
<path d="M2397 2210 c457 -3 834 -7 836 -10 3 -3 -295 -7 -661 -9 -435 -2
-674 -7 -687 -14 -11 -5 -28 -19 -37 -30 -10 -11 -18 -15 -18 -8 0 8 -9 7 -30
-4 -16 -8 -38 -15 -50 -15 -18 0 -100 -35 -100 -43 0 -1 33 -3 73 -3 123 0
190 -51 191 -143 l1 -46 -66 -3 c-66 -3 -67 -3 -77 27 -8 23 -18 31 -45 36
-35 7 -77 -7 -77 -26 0 -12 24 -21 116 -48 122 -35 162 -78 163 -174 1 -68
-50 -132 -125 -157 -43 -15 -167 -9 -209 10 -51 22 -58 22 -42 -3 7 -12 19
-36 25 -54 9 -26 8 -33 -6 -38 -17 -8 -765 -26 -786 -20 -6 2 -23 6 -38 9 -14
3 -29 14 -31 24 -4 13 -5 14 -6 1 0 -8 5 -24 13 -35 13 -17 31 -19 213 -24
109 -3 668 -4 1243 -2 l1045 2 18 40 c15 35 17 77 17 319 0 154 4 282 8 285 4
2 9 30 10 61 2 48 -1 59 -22 80 l-25 25 -833 -2 -833 -3 832 -5z m-67 -163
c25 -12 59 -41 76 -64 59 -78 68 -228 19 -326 -8 -17 -14 -31 -13 -32 2 -2 18
-10 36 -19 17 -9 32 -19 32 -22 0 -2 -11 -27 -25 -54 -23 -46 -27 -49 -50 -40
-14 5 -37 17 -52 27 -22 14 -48 18 -133 18 -90 0 -111 3 -148 23 -140 75 -166
325 -46 446 76 75 200 93 304 43z m300 -182 l0 -194 123 -3 122 -3 3 -62 3
-63 -190 0 -190 0 -3 256 c-2 141 -1 258 1 260 2 2 33 4 68 4 l63 0 0 -195z"/>
<path d="M2126 1909 c-23 -27 -26 -40 -26 -102 0 -54 5 -80 20 -104 11 -18 24
-33 30 -33 5 0 20 20 33 45 l23 46 47 -25 c25 -14 48 -22 50 -18 13 22 16 86
6 131 -14 66 -44 91 -109 91 -42 0 -52 -4 -74 -31z"/>
<path d="M710 2163 c0 -19 59 -96 163 -212 59 -67 107 -128 107 -136 0 -8 -32
-51 -71 -95 -38 -44 -68 -80 -65 -80 14 0 146 163 146 180 0 11 -47 73 -107
140 -60 66 -123 141 -140 166 -18 26 -33 42 -33 37z"/>
<path d="M1514 1812 c-15 -55 -13 -57 53 -60 56 -3 62 -5 67 -28 11 -42 41
-64 90 -64 46 0 72 19 63 44 -3 8 -52 29 -108 46 -75 24 -110 40 -130 61 l-27
29 -8 -28z"/>
<path d="M799 1593 c-48 -53 -73 -83 -67 -83 3 0 28 27 57 60 58 67 64 81 10
23z"/>
</g>
</svg>
